<?xml version="1.0" encoding="UTF-8" standalone="no"?>
<!-- Created with Inkscape (http://www.inkscape.org/) -->

<svg
   xmlns:dc="http://purl.org/dc/elements/1.1/"
   xmlns:cc="http://creativecommons.org/ns#"
   xmlns:rdf="http://www.w3.org/1999/02/22-rdf-syntax-ns#"
   xmlns:svg="http://www.w3.org/2000/svg"
   xmlns="http://www.w3.org/2000/svg"
   xmlns:xlink="http://www.w3.org/1999/xlink"
   xmlns:sodipodi="http://sodipodi.sourceforge.net/DTD/sodipodi-0.dtd"
   xmlns:inkscape="http://www.inkscape.org/namespaces/inkscape"
   width="154mm"
   height="39mm"
   viewBox="0 0 545.66927 138.18898"
   id="svg2"
   version="1.1"
   inkscape:version="0.91 r"
   sodipodi:docname="logo.svg">
  <defs
     id="defs4">
    <linearGradient
       inkscape:collect="always"
       id="linearGradient3385">
      <stop
         style="stop-color:#225500;stop-opacity:1;"
         offset="0"
         id="stop3387" />
      <stop
         style="stop-color:#225500;stop-opacity:0;"
         offset="1"
         id="stop3389" />
    </linearGradient>
    <linearGradient
       inkscape:collect="always"
       xlink:href="#linearGradient3385"
       id="linearGradient3391"
       x1="133.21426"
       y1="962.71936"
       x2="109.64285"
       y2="963.43365"
       gradientUnits="userSpaceOnUse"
       gradientTransform="translate(-13.131983,9.0913729)" />
  </defs>
  <sodipodi:namedview
     id="base"
     pagecolor="#ffffff"
     bordercolor="#666666"
     borderopacity="1.0"
     inkscape:pageopacity="0.0"
     inkscape:pageshadow="2"
     inkscape:zoom="0.98994949"
     inkscape:cx="388.847"
     inkscape:cy="20.899542"
     inkscape:document-units="cm"
     inkscape:current-layer="layer1"
     showgrid="false"
     inkscape:window-width="960"
     inkscape:window-height="1031"
     inkscape:window-x="958"
     inkscape:window-y="0"
     inkscape:window-maximized="0"
     showguides="true"
     inkscape:guide-bbox="true"
     width="145mm">
    <sodipodi:guide
       position="1291.4286,4108.5715"
       orientation="0,1"
       id="guide4659" />
  </sodipodi:namedview>
  <metadata
     id="metadata7">
    <rdf:RDF>
      <cc:Work
         rdf:about="">
        <dc:format>image/svg+xml</dc:format>
        <dc:type
           rdf:resource="http://purl.org/dc/dcmitype/StillImage" />
        <dc:title></dc:title>
      </cc:Work>
    </rdf:RDF>
  </metadata>
  <g
     inkscape:label="Layer 1"
     inkscape:groupmode="layer"
     id="layer1"
     transform="translate(0,-914.17322)">
    <path
       style="fill:#225500"
       d="m 101.35387,919.58204 c -0.47101,-0.0229 -1.21572,0.31412 -3.358493,1.38419 -2.01012,1.00382 -3.9694,1.7705 -5.35928,2.0975 -2.62383,0.61731 -6.225394,0.67536 -8.247374,0.13264 -2.08536,-0.55974 -2.74785,-0.50175 -3.26474,0.28709 -0.39202,0.59831 -0.39972,0.74805 -0.0701,1.32936 0.49419,0.87172 1.85699,1.3113 5.13882,1.65832 2.270534,0.24008 3.108094,0.21877 5.201304,-0.13501 2.69268,-0.45507 5.03481,-1.17641 6.97695,-2.14878 l 1.22381,-0.6131 0,1.80864 c 0,1.54958 -0.0645,1.80886 -0.45097,1.81099 -1.06502,0.006 -7.33341,0.78822 -9.34265,1.16607 -18.928957,3.55959 -35.300056,13.70296 -45.741804,28.34161 -0.808911,1.13402 -1.720838,2.13736 -2.026746,2.22955 -1.794968,0.54089 -6.489672,0.0218 -8.512041,-0.94087 -0.915096,-0.4356 -1.963723,-1.67974 -1.966047,-2.33272 0,-0.14883 0.688148,-0.4126 1.530381,-0.58657 0.842264,-0.17397 2.553202,-0.72377 3.801793,-1.22148 2.83774,-1.13116 9.475069,-4.45282 10.14559,-5.07751 0.677554,-0.63123 0.630468,-1.38116 -0.117322,-1.87112 -0.562405,-0.3685 -0.833631,-0.3672 -3.011233,0.0106 -5.499601,0.9542 -12.238226,0.95771 -16.329627,0.009 -0.97178,-0.22538 -1.964477,-0.34705 -2.205369,-0.27059 -0.585737,0.1859 -0.947393,1.04403 -1.160758,2.75186 -0.386919,3.09663 1.151008,5.51931 3.822407,6.02015 0.564035,0.10574 1.043828,0.36454 1.119498,0.60366 0.403278,1.27416 0.756483,1.98196 1.323475,2.65578 1.354202,1.60939 4.900705,2.77505 8.470178,2.7837 l 1.848724,0.005 -1.898829,3.67269 c -3.901337,7.54579 -6.449317,14.84447 -8.223187,23.55533 -0.73454,3.60705 -1.580275,9.54123 -1.812747,12.72058 -0.0881,1.2049 -0.218496,2.5965 -0.290061,3.0927 l -0.130271,0.9019 -2.758357,0.049 c -8.027751,0.1422 -15.00754,4.5711 -18.6063201,11.8068 -1.715315,3.4488 -2.162359,5.3952 -2.162359,9.407 0,4.0118 0.447044,5.9587 2.162359,9.4075 4.0348381,8.1125 12.4288931,12.7248 21.3481671,11.7302 14.179824,-1.5812 22.817911,-16.3544 17.246896,-29.4959 -2.223419,-5.2449 -7.000162,-9.787 -12.227148,-11.6276 l -1.757964,-0.619 0.07135,-2.5196 c 0.08095,-2.8745 0.851953,-9.11604 1.627059,-13.16985 2.558303,-13.37989 7.836148,-25.43331 15.199506,-34.71311 3.44062,-4.33607 8.287206,-8.91685 12.999447,-12.28671 10.007049,-7.15637 23.385753,-12.0165 35.76007,-12.99059 l 2.2549,-0.17804 0,0.84714 c 1.044433,0.0315 2.083193,0.0788 3.092613,0.13382 l -0.003,-4.36832 c -0.003,-3.12987 -0.0701,-5.93748 -0.15092,-6.23886 -0.0809,-0.30138 -0.42181,-0.69544 -0.75814,-0.87543 -0.13785,-0.0738 -0.2645,-0.12146 -0.42148,-0.1291 z m -75.46996,87.46896 0,6.8485 c 0,9.0056 -0.219553,9.0355 -1.964266,0.2676 -0.720233,-3.6194 -1.239959,-6.6202 -1.154872,-6.6686 0.08512,-0.048 0.822011,-0.1689 1.637079,-0.2677 l 1.482059,-0.1798 z m 0.741028,0.037 c 0.124023,0 0.595999,0.074 1.049321,0.1645 l 0.824154,0.1651 -0.163291,3.5076 c -0.09007,1.9293 -0.392896,4.7839 -0.672634,6.3432 -0.591501,3.297 -0.643688,3.4793 -0.997466,3.4793 -0.175908,0 -0.265884,-2.3101 -0.265884,-6.8301 0,-3.7564 0.101778,-6.8296 0.2258,-6.8296 z m -4.734998,0.5978 c 0.02445,-9e-4 0.03915,9e-4 0.04422,0.01 0.09478,0.095 2.661077,12.7544 2.661077,13.1274 0,0.1261 -0.131538,0.1857 -0.292415,0.132 -0.160847,-0.054 -1.439983,-2.8633 -2.842056,-6.2435 -1.402073,-3.3803 -2.517435,-6.1754 -2.478317,-6.2118 0.1466,-0.1364 2.542034,-0.7949 2.907493,-0.81 z m 9.614424,0.2346 c 0.425071,0 1.596423,0.5532 1.598174,0.8036 0,0.1633 -0.375872,1.2165 -0.837706,2.3403 l -0.840061,2.0433 -0.07428,-2.5279 c -0.04078,-1.3901 -0.03027,-2.5706 0.02294,-2.6239 0.02475,-0.025 0.07015,-0.036 0.130875,-0.035 z m -13.272394,1.0588 c 0.05901,-10e-4 0.101356,0.01 0.123208,0.031 0.333737,0.3337 5.133237,12.1418 5.01679,12.3427 -0.196221,0.3387 -0.540823,-0.1175 -4.332354,-5.7324 -3.383815,-5.0113 -3.526129,-5.2735 -3.056055,-5.6329 0.613746,-0.4692 1.835384,-1 2.248411,-1.008 z m 15.822065,0.047 c 0.276509,0.028 0.794786,0.2249 1.34231,0.5229 l 1.3111,0.7133 -0.450394,0.701 c -1.742057,2.7086 -5.107944,7.7136 -5.190102,7.7179 -0.05499,0 -0.02143,-0.8579 0.07428,-1.9124 0.12861,-1.4194 0.47614,-2.6401 1.339382,-4.7031 0.641243,-1.5326 1.264739,-2.8863 1.385351,-3.0083 0.03055,-0.031 0.09589,-0.04 0.188072,-0.031 z m 3.201055,1.6766 c 0.0881,0 0.668016,0.4503 1.288705,1.0081 l 1.128311,1.0139 -4.636542,4.656 c -2.550063,2.5609 -4.67916,4.6561 -4.731467,4.6561 -0.05228,0 -0.01781,-0.3188 0.07606,-0.7087 0.172316,-0.7149 6.577475,-10.6143 6.874931,-10.6254 z m -22.475904,0.1592 c 0.322418,0.098 1.59265,1.8134 3.831252,5.173 4.317897,6.48 4.029677,6.0019 3.613148,6.0019 -0.186986,0 -2.460298,-2.1227 -5.051561,-4.7168 l -4.711426,-4.7167 0.977424,-0.7764 c 0.537293,-0.4272 1.117204,-0.8608 1.289278,-0.9633 0.01298,-0.01 0.03039,-0.01 0.05188,0 z m -2.720025,2.1234 4.721417,4.7161 c 2.596877,2.5941 4.721447,4.8724 4.721447,5.0628 0,0.1905 -0.102412,0.3078 -0.228125,0.2606 -0.125744,-0.047 -2.674599,-1.71 -5.664101,-3.6945 -2.98947,-1.9846 -5.43848,-3.6757 -5.44183,-3.7588 -0.0033,-0.083 0.420966,-0.6992 0.942653,-1.3688 l 0.948539,-1.2174 z m 27.974932,0.1863 0.555916,0.5022 c 0.305605,0.2763 0.779754,0.8167 1.054029,1.2015 l 0.498749,0.6998 -5.596882,3.734 c -3.078391,2.0535 -5.706206,3.6662 -5.839737,3.5836 -0.133561,-0.082 1.910178,-2.304 4.542219,-4.936 l 4.785706,-4.7851 z m -30.1390711,3.0843 c 0.03079,0 0.05843,0.01 0.08373,0.02 2.7224401,1.6186 10.9850171,7.3929 10.8624421,7.5912 -0.09043,0.1463 -0.297576,0.2099 -0.460415,0.1415 -0.162869,-0.068 -2.811299,-1.1677 -5.885162,-2.4435 -3.073864,-1.2758 -5.7664821,-2.4193 -5.9835901,-2.5408 -0.338415,-0.1894 -0.283995,-0.4139 0.380248,-1.577 0.439861,-0.7702 0.78727,-1.1818 1.002749,-1.192 z m 32.4187231,0.025 c 0.408439,-0.041 1.747701,2.3759 1.446683,2.6605 -0.157255,0.1487 -11.65436,5.0256 -12.12697,5.1442 -0.02717,0.01 -0.118348,-0.099 -0.202771,-0.2359 -0.113248,-0.1832 8.33553,-6.0696 10.846506,-7.557 0.01117,-0.01 0.02324,-0.011 0.03655,-0.012 z m -34.4566671,3.1775 0.83004,0.3408 c 8.4104141,3.456 11.7844501,4.9169 11.7844501,5.1028 0,0.3487 -0.244696,0.3128 -6.915619,-1.0263 -3.434825,-0.6895 -6.3101731,-1.3193 -6.3897961,-1.3989 -0.07959,-0.08 0.04319,-0.7913 0.272947,-1.5817 l 0.417978,-1.4367 z m 36.1703821,0.1792 c 0.288974,-0.053 1.296854,2.6317 1.07235,2.8563 -0.166128,0.1661 -11.916079,2.5749 -12.730031,2.6097 -0.330748,0.014 -0.559447,-0.1002 -0.508166,-0.254 0.07833,-0.235 11.345586,-5.062 12.165847,-5.212 z m -37.1625361,3.5171 6.5913901,1.3176 c 3.903451,0.7804 6.633768,1.4459 6.695734,1.6318 0.08044,0.2413 -1.477531,0.3136 -6.747015,0.3136 l -6.8513891,0 0.003,-0.7086 c 0.003,-0.3898 0.07165,-1.1242 0.155625,-1.6318 l 0.152697,-0.9226 z m 38.4364801,0.1863 c 0.05442,0.062 0.164469,0.7795 0.244666,1.5946 l 0.145604,1.4821 -6.811275,0 c -5.277483,0 -6.811095,-0.072 -6.810702,-0.3219 2.71e-4,-0.2159 2.166222,-0.7422 6.56664,-1.5952 3.611276,-0.7001 6.610647,-1.2218 6.665067,-1.1596 z m -38.7477601,3.5925 6.8513891,0 c 5.284998,0 6.827454,0.072 6.746412,0.3148 -0.06251,0.1875 -2.758992,0.8455 -6.658005,1.6247 l -6.5530581,1.3099 -0.162718,-0.6585 c -0.08952,-0.362 -0.176572,-1.0931 -0.193354,-1.6247 l -0.03067,-0.9662 z m 32.3756821,0 6.859629,0 -0.155052,0.5795 c -0.08548,0.3189 -0.157224,1.0147 -0.159156,1.5463 -0.003,0.5956 -0.12689,0.9695 -0.325436,0.9739 -0.177176,0 -3.192665,-0.5419 -6.701016,-1.2126 -8.6172,-1.6476 -8.556079,-1.8871 0.481031,-1.8871 z m -6.800651,1.2887 c 0.319097,0 11.023711,2.0967 12.508366,2.45 0.633969,0.1509 0.616523,0.6392 -0.08491,2.3722 l -0.334853,0.8283 -2.530202,-1.0599 c -1.391569,-0.5828 -4.149595,-1.7257 -6.129194,-2.5403 -3.238936,-1.3328 -4.439022,-2.0503 -3.429211,-2.0503 z m -12.026731,0.168 c 0.08602,0 0.139567,0.014 0.158553,0.033 0.151942,0.1519 -2.102506,1.2159 -6.02307,2.8426 l -6.2659851,2.6004 -0.291811,-0.6962 c -0.160515,-0.3827 -0.370772,-1.0625 -0.466905,-1.5109 -0.211404,-0.9863 -0.880476,-0.761 6.7818161,-2.2826 3.297582,-0.6549 5.505186,-1.0096 6.107402,-0.9863 z m 0.607197,1.024 c 0.08204,0.01 0.117443,0.045 0.148562,0.095 0.08207,0.1328 -2.377989,1.9281 -5.466611,3.9893 -6.2229131,4.1528 -5.6972421,4.0059 -6.7882761,1.9 -0.360388,-0.6957 -0.405844,-0.9759 -0.173312,-1.0712 0.173131,-0.071 2.4603881,-1.0217 5.0828001,-2.1128 5.605092,-2.3321 6.841368,-2.8372 7.196837,-2.8008 z m 10.959118,0.01 c 0.201866,0 0.508377,0.084 0.865988,0.2352 0.523982,0.2213 3.214125,1.3332 5.978278,2.4707 2.764183,1.1374 5.125872,2.1627 5.247903,2.2785 0.310556,0.2946 -1.126167,2.8614 -1.483235,2.6498 -0.156923,-0.093 -2.696301,-1.7753 -5.642851,-3.7387 -2.946581,-1.9634 -5.2885,-3.6806 -5.204862,-3.8159 0.03426,-0.055 0.117654,-0.082 0.238779,-0.08 z m -10.299463,0.8595 c 0.587547,0 -0.500831,1.274 -4.556948,5.3345 -3.345603,3.3493 -4.777165,4.6229 -4.994394,4.4427 -0.167487,-0.1391 -0.625609,-0.7159 -1.018112,-1.2823 -0.392503,-0.5663 -0.667804,-1.0696 -0.611331,-1.1183 0.353657,-0.3046 11.072729,-7.3766 11.180785,-7.3766 z m 9.337945,0.1745 c 0.132958,-0.082 2.764455,1.5329 5.847434,3.5896 4.996446,3.3331 5.569687,3.7872 5.276758,4.1761 -0.584982,0.7767 -1.606836,1.8535 -1.758537,1.8535 -0.08122,0 -2.276271,-2.1308 -4.877645,-4.735 -2.601405,-2.6043 -4.620967,-4.802 -4.48801,-4.8842 z m -0.653769,0.8566 c 0.190487,0 2.432529,2.0952 4.982592,4.656 l 4.636542,4.656 -1.128311,1.014 c -0.620689,0.5577 -1.2006,1.0114 -1.288705,1.008 -0.08807,0 -1.783649,-2.4523 -3.768168,-5.4418 -1.98455,-2.9895 -3.647255,-5.5378 -3.694522,-5.6635 -0.04724,-0.1257 0.07009,-0.2287 0.260572,-0.2287 z m -7.807564,0.033 c 0.158674,0.053 -1.395704,2.6213 -3.454565,5.7077 -4.10773,6.1576 -3.734937,5.8591 -5.476601,4.3813 l -0.843019,-0.7151 4.743239,-4.735 c 2.608558,-2.6044 4.872273,-4.6918 5.030946,-4.6389 z m 1.060549,0.6113 c 0.124567,0.077 -0.413661,1.6743 -1.196132,3.5495 -0.782471,1.8751 -1.751293,4.2208 -2.153515,5.2131 -1.346476,3.3218 -1.552295,3.7375 -1.849902,3.7375 -0.162839,0 -0.799343,-0.2952 -1.414237,-0.6555 -0.614893,-0.3604 -1.117716,-0.7179 -1.117716,-0.7947 0,-0.395 7.538541,-11.1692 7.731502,-11.0499 z m 5.627518,0.069 c 0.158824,-0.1588 6.381013,8.6767 7.613033,10.8105 0.116417,0.2017 -0.25692,0.5402 -1.052882,0.9545 -0.67843,0.3531 -1.349736,0.6436 -1.491476,0.6461 -0.141771,0 -1.388008,-2.7408 -2.769556,-6.0968 -1.381548,-3.356 -2.416079,-6.1973 -2.299119,-6.3143 z m -4.552843,0.2611 c 0.260573,0.012 -0.113036,2.1036 -0.945581,6.2825 -1.543481,7.7475 -1.40005,7.2136 -1.898225,7.0713 -0.231626,-0.066 -0.91911,-0.2636 -1.527454,-0.4386 -0.703783,-0.2025 -1.060006,-0.4368 -0.980352,-0.6444 0.06885,-0.1794 1.190276,-2.9137 2.492473,-6.0767 1.703815,-4.1385 2.598598,-6.2061 2.859139,-6.1941 z m 3.525314,0.057 c 0.230691,0 5.200365,11.7615 5.196592,12.2985 -0.003,0.3085 -2.210743,1.1271 -2.700557,1.001 -0.137213,-0.035 -0.798045,-2.7812 -1.46908,-6.1021 -1.260724,-6.2391 -1.397515,-7.1974 -1.026955,-7.1974 z m -2.349796,0.3072 c 0.272887,0.037 0.32776,2.2961 0.32776,6.7989 l 0,6.8484 -1.482059,-0.1798 c -0.815068,-0.099 -1.551963,-0.2192 -1.637079,-0.2677 -0.08509,-0.048 0.434639,-3.0491 1.154872,-6.6686 0.872356,-4.3839 1.363619,-6.5684 1.636506,-6.5312 z m 1.164862,0.015 c 0.275663,0.092 2.711845,11.464 2.75718,12.8709 0.01358,0.422 -0.347107,0.5201 -2.498962,0.6809 l -0.580092,0.044 0,-6.8513 c 0,-5.3666 0.06954,-6.8282 0.321874,-6.7441 z"
       id="path3344"
       inkscape:connector-curvature="0" />
    <path
       style="fill:url(#linearGradient3391);fill-opacity:1;fill-rule:evenodd;stroke:none;stroke-width:1px;stroke-linecap:butt;stroke-linejoin:miter;stroke-opacity:1"
       d="m 105.92706,987.34132 c -1.5989,-0.61384 -3.39991,-0.83986 -5.141,-0.0317 L 84.541453,955.16425 c 18.192487,-12.08747 39.021437,-2.65038 47.301407,5.67224 z"
       id="path3587"
       inkscape:connector-curvature="0"
       sodipodi:nodetypes="ccccc" />
    <path
       inkscape:connector-curvature="0"
       id="path4524"
       d="m 102.4491,933.52449 c -11.057193,0.11946 -21.822177,3.35762 -30.99553,9.45219 -11.224491,7.45736 -19.3408,18.35324 -23.229068,31.18359 -4.831193,15.94174 -2.338025,33.80653 6.643125,47.59703 9.412137,14.4524 24.231996,23.7006 41.47808,25.8848 3.28343,0.4158 11.837453,0.2874 15.124233,-0.227 1.31665,-0.2061 3.65438,-0.6819 5.19517,-1.0574 22.53169,-5.4907 39.43902,-24.0247 43.03089,-47.17173 0.56935,-3.66899 0.69358,-10.85601 0.25342,-14.63834 -1.56784,-13.47229 -7.16512,-25.05769 -16.66506,-34.49408 -8.10767,-8.05345 -18.7365,-13.63092 -29.72845,-15.59929 -3.70262,-0.66305 -7.4211,-0.96959 -11.10681,-0.92977 z m 0.94292,4.12942 c 12.0712,0.14912 23.77445,4.4857 33.27796,12.45476 11.65245,9.77102 18.53357,24.63055 18.53357,40.02294 0,12.42049 -4.3523,24.28199 -12.45593,33.94599 -8.60739,10.2647 -21.04733,16.7971 -34.84697,18.2981 -2.53793,0.2759 -8.134423,0.263 -10.713223,-0.025 -10.495084,-1.1705 -20.258884,-5.362 -28.408698,-12.1959 -10.032282,-8.4125 -16.635051,-20.7451 -18.180706,-33.95859 -1.618486,-13.83619 2.387979,-27.83946 11.123015,-38.87631 1.764121,-2.22891 5.962763,-6.42766 8.191737,-8.19173 7.743368,-6.1285 17.016482,-9.98478 26.746872,-11.12302 2.24901,-0.26308 4.496973,-0.37927 6.732373,-0.35165 z m 28.03367,22.0681 c -0.57137,-0.043 -1.2092,0.35503 -2.01947,1.21791 -0.61821,0.65833 -6.14419,6.64856 -12.27982,13.31142 l -11.15537,12.11447 -1.06933,-0.3301 c -2.68073,-0.82696 -5.868803,0.64867 -7.120593,3.29611 -0.71079,1.50314 -0.72235,3.67007 -0.0269,5.10653 2.18591,4.51546 8.485393,4.74772 10.851613,0.40018 0.81371,-1.49504 1.00076,-3.35914 0.47807,-4.77222 -0.20874,-0.56432 -0.39836,-1.14393 -0.42175,-1.28804 -0.0232,-0.14404 1.6506,-2.11051 3.71967,-4.36964 l 3.76159,-4.10725 0.53258,0.49365 c 0.77468,0.71798 2.46012,3.32165 3.12895,4.83394 2.39522,5.41607 1.84942,12.40994 -1.34491,17.23353 -1.4372,2.1703 -1.28031,2.0819 -2.54309,1.4426 -2.42227,-1.2263 -5.08343,-0.3635 -6.3208,2.05 -0.37327,0.7281 -0.44022,1.1936 -0.35109,2.4395 l 0.11023,1.5396 -1.99191,0.4679 c -3.78411,0.8884 -8.337043,0.4997 -11.730493,-1.0011 -4.20612,-1.8601 -7.85748,-5.6374 -9.603744,-9.93503 -2.51308,-6.18474 -1.17726,-14.03205 3.217064,-18.89602 0.89318,-0.98867 1.00712,-1.89431 0.25637,-2.03746 -0.8655,-0.16504 -3.241474,2.80109 -4.600894,5.74332 -2.8471,6.16225 -2.24325,13.94606 1.50907,19.45199 1.936594,2.8415 5.196954,5.6149 8.269044,7.0343 4.40497,2.0353 9.995033,2.3705 14.463423,0.8675 0.94845,-0.3191 1.02364,-0.3074 2.37355,0.3672 1.48925,0.7442 2.38412,0.8524 3.62378,0.4373 2.35764,-0.7893 3.73982,-3.193 3.16012,-5.4953 -0.25818,-1.0254 -0.25514,-1.0349 0.82014,-2.4819 5.43278,-7.31124 5.0167,-18.21543 -0.94715,-24.81669 l -0.84229,-0.93218 0.45109,-0.5056 c 0.24801,-0.2782 2.7889,-3.04876 5.64689,-6.1567 l 5.19638,-5.65105 0.82672,0.9525 c 2.72265,3.13646 5.46538,7.88614 6.75034,11.68914 4.2795,12.66582 1.02077,26.58518 -8.43855,36.04458 -2.75796,2.7579 -5.74257,4.9148 -9.1125,6.5849 -8.13684,4.0327 -17.14835,4.7934 -25.912363,2.1879 l -1.51686,-0.4505 0.11862,-0.8825 c 0.53454,-3.9853 -4.33773,-6.6455 -7.517174,-4.1042 l -0.8567,0.6847 -1.42338,-1.0831 c -0.78283,-0.5957 -2.34666,-2.0178 -3.47524,-3.1607 -12.88312,-13.0466 -13.462548,-33.52005 -1.34792,-47.61745 1.23772,-1.44026 1.49458,-1.86676 1.306,-2.16625 -0.34192,-0.54303 -0.95081,-0.58716 -1.485714,-0.10781 -1.815644,1.62711 -4.952862,6.18408 -6.567063,9.53843 -2.454412,5.10058 -3.502163,9.83014 -3.509951,15.84552 -0.006,4.6066 0.364765,7.13387 1.62229,11.05776 2.338931,7.2983 7.078156,14.0144 12.870508,18.2394 1.24759,0.91 1.25007,0.9144 1.14962,1.9686 -0.26897,2.8222 1.76466,4.9854 4.68655,4.9854 1.078814,0 1.530564,-0.1256 2.375304,-0.6614 0.57391,-0.3639 1.10924,-0.7679 1.18919,-0.8974 0.0943,-0.1525 0.7014,-0.046 1.72655,0.3026 1.76113,0.599 4.32055,1.1521 6.73237,1.4546 2.293663,0.2875 5.491703,0.2943 8.045563,0.018 12.72466,-1.3799 23.73651,-9.1495 29.22645,-20.6214 6.20786,-12.97216 4.30426,-28.19537 -4.92382,-39.37415 -0.79696,-0.96544 -1.34687,-1.81836 -1.22209,-1.89547 0.12481,-0.0771 0.84102,-0.85417 1.59232,-1.72714 1.51043,-1.75491 1.69295,-2.45237 0.87045,-3.32786 -0.3178,-0.33828 -0.63665,-0.52293 -0.97945,-0.54873 z m 15.03498,32.09177 c -1.55752,0 -2.84381,1.2793 -2.84381,2.82765 0,0.78973 0.69866,2.02878 1.34074,2.37771 0.8126,0.44162 2.42629,0.42469 3.12476,-0.0329 1.22701,-0.80396 1.58721,-2.57625 0.78959,-3.88441 -0.56156,-0.92094 -1.24802,-1.28801 -2.41128,-1.28801 z m -83.038262,12.73272 c -0.664967,0.025 -1.334281,0.2811 -1.874501,0.8214 -1.230391,1.2304 -1.176544,2.9216 0.129395,4.0683 0.642602,0.5642 0.991249,0.6931 1.87091,0.6931 1.739522,0 2.779093,-1.0926 2.779093,-2.9217 0,-1.646 -1.441975,-2.7152 -2.904897,-2.6611 z"
       style="fill:#225500;stroke:#000000;stroke-width:0.2998524" />
    <g
       transform="matrix(0.35496541,0,0,0.35496541,-540.36219,776.48585)"
       style="font-style:normal;font-variant:normal;font-weight:normal;font-stretch:normal;font-size:215.58717346px;line-height:125%;font-family:'Helvetica LT';-inkscape-font-specification:'Helvetica LT';letter-spacing:5.98853254px;word-spacing:0px;fill:#225500;fill-opacity:1;stroke:none;stroke-width:1px;stroke-linecap:butt;stroke-linejoin:miter;stroke-opacity:1"
       id="flowRoot4444">
      <path
         d="m 2043.7029,476.41055 5.6053,0.21559 q 10.9949,0 15.7378,-6.46762 4.743,-6.6832 4.743,-16.8158 0,-4.31174 -1.078,-8.19231 -1.0779,-3.88057 -3.665,-6.6832 -2.587,-2.80263 -6.8988,-4.09616 -4.0961,-1.50911 -10.1326,-1.29352 l -4.3117,0 0,43.33302 z m -32.1225,92.70249 0,-162.55273 32.3381,0 q 7.7611,0 17.4626,1.07793 9.917,1.07794 18.756,5.60527 8.8391,4.52733 14.8756,14.01317 6.0364,9.27025 6.0364,25.87046 0,13.58199 -5.6053,24.57694 -5.3897,10.77935 -17.4625,17.46256 l 28.2419,73.9464 -33.8472,0 -28.2419,-75.02434 -0.4312,0 0,75.02434 -32.1225,0 z"
         style="font-style:normal;font-variant:normal;font-weight:bold;font-stretch:normal;line-height:87.00000048%;font-family:'Futura LT Condensed';-inkscape-font-specification:'Futura LT Condensed, Medium';fill:#225500"
         id="path4766"
         inkscape:connector-curvature="0" />
      <path
         d="m 2179.3233,472.96116 -3.6649,-24.57694 -0.4312,0 -3.4494,24.57694 -6.8988,43.33302 22.6366,0 -8.1923,-43.33302 z m 14.2288,-66.40085 39.0213,162.55273 -34.2784,0 -6.0364,-27.37957 -32.5537,0 -5.8209,27.37957 -31.9069,0 37.7278,-162.55273 33.8472,0 z"
         style="font-style:normal;font-variant:normal;font-weight:bold;font-stretch:normal;line-height:87.00000048%;font-family:'Futura LT Condensed';-inkscape-font-specification:'Futura LT Condensed, Medium';fill:#225500"
         id="path4768"
         inkscape:connector-curvature="0" />
      <path
         d="m 2283.4781,540.22436 q 9.7015,0.43117 15.9535,-4.52733 6.4676,-5.1741 10.1326,-12.93524 3.8805,-7.97672 5.3897,-17.03138 1.5091,-9.27025 1.5091,-16.8158 0,-7.76114 -1.5091,-17.03139 -1.2936,-9.27025 -5.1741,-17.24697 -3.665,-8.19231 -10.1326,-13.58199 -6.2521,-5.60527 -16.1691,-5.60527 l 0,104.77537 0,0 z m -32.1225,28.88868 0,-162.55273 24.3614,0 q 1.2935,0 7.33,-0.21559 6.0364,-0.21559 14.0131,1.50911 8.1923,1.50911 17.247,6.03644 9.0547,4.31175 16.6002,13.58199 7.7611,9.05467 12.7197,24.14577 4.9585,14.87551 4.9585,37.51217 0,17.46256 -3.665,32.12248 -3.4494,14.65993 -11.6417,25.43929 -7.9768,10.56377 -21.1276,16.60021 -13.1508,5.82086 -32.1225,5.82086 l -28.6731,0 z"
         style="font-style:normal;font-variant:normal;font-weight:bold;font-stretch:normal;line-height:87.00000048%;font-family:'Futura LT Condensed';-inkscape-font-specification:'Futura LT Condensed, Medium';fill:#225500"
         id="path4770"
         inkscape:connector-curvature="0" />
      <path
         d="m 2419.0986,472.96116 -3.665,-24.57694 -0.4312,0 -3.4494,24.57694 -6.8988,43.33302 22.6367,0 -8.1923,-43.33302 z m 14.2287,-66.40085 39.0213,162.55273 -34.2784,0 -6.0364,-27.37957 -32.5537,0 -5.8208,27.37957 -31.9069,0 37.7277,-162.55273 33.8472,0 z"
         style="font-style:normal;font-variant:normal;font-weight:bold;font-stretch:normal;line-height:87.00000048%;font-family:'Futura LT Condensed';-inkscape-font-specification:'Futura LT Condensed, Medium';fill:#225500"
         id="path4772"
         inkscape:connector-curvature="0" />
      <path
         d="m 2523.2534,476.41055 5.6052,0.21559 q 10.995,0 15.7379,-6.46762 4.7429,-6.6832 4.7429,-16.8158 0,-4.31174 -1.0779,-8.19231 -1.078,-3.88057 -3.665,-6.6832 -2.5871,-2.80263 -6.8988,-4.09616 -4.0962,-1.50911 -10.1326,-1.29352 l -4.3117,0 0,43.33302 z m -32.1225,92.70249 0,-162.55273 32.338,0 q 7.7612,0 17.4626,1.07793 9.917,1.07794 18.7561,5.60527 8.8391,4.52733 14.8755,14.01317 6.0364,9.27025 6.0364,25.87046 0,13.58199 -5.6052,24.57694 -5.3897,10.77935 -17.4626,17.46256 l 28.2419,73.9464 -33.8472,0 -28.2419,-75.02434 -0.4311,0 0,75.02434 -32.1225,0 z"
         style="font-style:normal;font-variant:normal;font-weight:bold;font-stretch:normal;line-height:87.00000048%;font-family:'Futura LT Condensed';-inkscape-font-specification:'Futura LT Condensed, Medium';fill:#225500"
         id="path4774"
         inkscape:connector-curvature="0" />
      <path
         d="m 2626.1046,530.73852 q 4.3117,0 7.9767,1.7247 3.8805,1.50911 6.4676,4.31174 2.8026,2.80263 4.3117,6.6832 1.7247,3.66499 1.7247,7.76114 0,4.31175 -1.7247,7.97673 -1.5091,3.66498 -4.3117,6.46761 -2.5871,2.80264 -6.4676,4.31175 -3.665,1.72469 -7.9767,1.72469 -4.3118,0 -8.1924,-1.72469 -3.6649,-1.50911 -6.4676,-4.31175 -2.587,-2.80263 -4.3117,-6.46761 -1.5091,-3.66498 -1.5091,-7.97673 0,-4.09615 1.5091,-7.76114 1.7247,-3.88057 4.3117,-6.6832 2.8027,-2.80263 6.4676,-4.31174 3.8806,-1.7247 8.1924,-1.7247 z"
         style="font-style:normal;font-variant:normal;font-weight:bold;font-stretch:normal;line-height:87.00000048%;font-family:'Futura LT Condensed';-inkscape-font-specification:'Futura LT Condensed, Medium';fill:#225500"
         id="path4776"
         inkscape:connector-curvature="0" />
      <path
         d="m 2076.2566,621.26973 q -3.2338,-1.72469 -6.6832,-2.80263 -3.4494,-1.29352 -7.1144,-1.29352 -7.5456,0 -12.7197,3.44939 -5.174,3.23381 -8.6234,8.83908 -3.2338,5.38967 -5.1741,12.28846 -1.9403,6.89879 -2.8027,14.01317 -0.8623,7.11438 -1.0779,14.01317 0,6.6832 0,11.6417 0,8.19232 0.6468,18.97168 0.8623,10.56377 3.8805,20.26519 3.0182,9.48584 9.2703,16.16904 6.4676,6.6832 17.4625,6.6832 6.6832,0 12.9353,-3.23381 l 0,18.97167 q -4.0962,2.58705 -8.4079,3.4494 -4.0962,1.07793 -8.8391,1.07793 -10.995,0 -18.9717,-3.66498 -7.9767,-3.66498 -13.582,-9.70142 -5.3896,-6.25203 -8.839,-14.22875 -3.4494,-8.19232 -5.3897,-17.03139 -1.7247,-9.05466 -2.3715,-18.32491 -0.6467,-9.27025 -0.6467,-17.89374 0,-8.19231 0.4311,-17.67814 0.6468,-9.48584 2.1559,-18.97168 1.7247,-9.70142 4.9585,-18.54049 3.2338,-8.83908 8.6235,-15.73787 5.3897,-6.89879 13.1508,-10.99494 7.9767,-4.09616 18.9717,-4.09616 5.6053,0 9.7014,1.07794 4.3118,0.86235 9.0547,3.66498 l 0,19.61843 z"
         style="font-style:normal;font-variant:normal;font-weight:500;font-stretch:normal;line-height:87.00000048%;font-family:'Futura LT Condensed';-inkscape-font-specification:'Futura LT Condensed, Medium';fill:#225500"
         id="path4778"
         inkscape:connector-curvature="0" />
      <path
         d="m 2109.4394,599.06425 19.834,75.23993 0.4312,0 3.4494,-20.91196 13.7976,-54.32797 23.0678,0 -30.1822,92.4869 0,70.06583 -21.5587,0 0,-70.06583 -32.1225,-92.4869 23.2834,0 z"
         style="font-style:normal;font-variant:normal;font-weight:500;font-stretch:normal;line-height:87.00000048%;font-family:'Futura LT Condensed';-inkscape-font-specification:'Futura LT Condensed, Medium';fill:#225500"
         id="path4780"
         inkscape:connector-curvature="0" />
      <path
         d="m 2211.4889,599.06425 0,78.04256 30.3978,-78.04256 22.2054,0 -31.9069,78.68932 34.494,83.86341 -24.7925,0 -30.3978,-82.3543 0,82.3543 -21.9899,0 0,-162.55273 21.9899,0 z"
         style="font-style:normal;font-variant:normal;font-weight:500;font-stretch:normal;line-height:87.00000048%;font-family:'Futura LT Condensed';-inkscape-font-specification:'Futura LT Condensed, Medium';fill:#225500"
         id="path4782"
         inkscape:connector-curvature="0" />
      <path
         d="m 2308.4181,599.06425 0,143.79665 36.2187,0 0,18.75608 -57.7774,0 0,-162.55273 21.5587,0 z"
         style="font-style:normal;font-variant:normal;font-weight:500;font-stretch:normal;line-height:87.00000048%;font-family:'Futura LT Condensed';-inkscape-font-specification:'Futura LT Condensed, Medium';fill:#225500"
         id="path4784"
         inkscape:connector-curvature="0" />
      <path
         d="m 2402.1675,617.17358 q -6.4676,0 -10.3482,5.17409 -3.665,4.9585 -5.8209,13.58199 -1.9402,8.4079 -2.587,20.04961 -0.6468,11.42612 -0.6468,24.36135 0,12.93523 0.6468,24.57694 0.6468,11.42612 2.587,20.0496 2.1559,8.4079 5.8209,13.58199 3.8806,4.95851 10.3482,4.95851 6.4676,0 10.1326,-4.95851 3.8805,-5.17409 5.8208,-13.58199 2.1559,-8.62348 2.8027,-20.0496 0.6467,-11.64171 0.6467,-24.57694 0,-12.93523 -0.6467,-24.36135 -0.6468,-11.64171 -2.8027,-20.04961 -1.9403,-8.62349 -5.8208,-13.58199 -3.665,-5.17409 -10.1326,-5.17409 z m 0,-20.2652 q 10.5637,0 17.6781,4.09616 7.1144,4.09615 11.8573,10.99494 4.7429,6.89879 7.33,15.73787 2.587,8.62348 3.665,17.89373 1.2935,9.27025 1.5091,18.32491 0.2156,9.05466 0.2156,16.38463 0,7.32996 -0.2156,16.38462 -0.2156,9.05466 -1.5091,18.32491 -1.078,9.27025 -3.665,18.10933 -2.5871,8.62348 -7.33,15.52227 -4.7429,6.89879 -12.0729,10.99495 -7.1143,4.09615 -17.4625,4.09615 -10.3482,0 -17.6782,-4.09615 -7.1144,-4.09616 -11.8573,-10.99495 -4.7429,-6.89879 -7.3299,-15.52227 -2.5871,-8.83908 -3.8806,-18.10933 -1.0779,-9.27025 -1.2935,-18.32491 -0.2156,-9.05466 -0.2156,-16.38462 0,-7.32997 0.2156,-16.38463 0.2156,-9.05466 1.2935,-18.32491 1.2935,-9.27025 3.8806,-17.89373 2.587,-8.83908 7.3299,-15.73787 4.7429,-6.89879 11.8573,-10.99494 7.1144,-4.09616 17.6782,-4.09616 z"
         style="font-style:normal;font-variant:normal;font-weight:500;font-stretch:normal;line-height:87.00000048%;font-family:'Futura LT Condensed';-inkscape-font-specification:'Futura LT Condensed, Medium';fill:#225500"
         id="path4786"
         inkscape:connector-curvature="0" />
      <path
         d="m 2491.0628,647.35578 3.2338,54.54356 0,59.71764 -21.5587,0 0,-162.55273 20.6963,0 37.9434,123.53145 0.4311,-0.43117 -5.1741,-65.10733 0,-57.99295 21.5588,0 0,162.55273 -20.0496,0 -37.9434,-125.25615 -0.4312,0.43118 1.2936,10.56377 z"
         style="font-style:normal;font-variant:normal;font-weight:500;font-stretch:normal;line-height:87.00000048%;font-family:'Futura LT Condensed';-inkscape-font-specification:'Futura LT Condensed, Medium';fill:#225500"
         id="path4788"
         inkscape:connector-curvature="0" />
      <path
         d="m 2620.293,689.61087 -8.1923,-59.07089 -0.4311,0 -12.9353,82.56989 25.8705,0 -4.3118,-23.499 z m 0.4312,-90.54662 34.9251,162.55273 -21.7743,0 -6.0364,-31.69131 -32.3381,0 -6.0364,31.69131 -21.1276,0 35.3563,-162.55273 17.0314,0 z"
         style="font-style:normal;font-variant:normal;font-weight:500;font-stretch:normal;line-height:87.00000048%;font-family:'Futura LT Condensed';-inkscape-font-specification:'Futura LT Condensed, Medium';fill:#225500"
         id="path4790"
         inkscape:connector-curvature="0" />
      <path
         d="m 2697.4388,599.06425 0,119.21971 q 0,7.76114 1.078,12.71964 1.0779,4.95851 3.0182,7.76114 2.1559,2.80264 4.9585,3.88057 2.8026,0.86235 6.0364,0.86235 5.6053,0 8.8391,-1.7247 3.2338,-1.72469 4.7429,-4.74292 1.7247,-3.01822 2.1559,-7.11437 0.6468,-4.31175 0.6468,-9.27025 l 0,-121.59117 21.5587,0 0,115.33914 q 0,7.97673 -0.6468,16.8158 -0.4311,8.62349 -3.8805,15.95345 -3.4494,7.11438 -11.2106,11.8573 -7.5455,4.74291 -21.5587,4.74291 -12.9352,0 -20.4808,-4.09615 -7.3299,-4.09616 -11.2105,-11.21054 -3.665,-7.11437 -4.7429,-16.60021 -0.8624,-9.70142 -0.8624,-20.69637 l 0,-112.10533 21.5587,0 z"
         style="font-style:normal;font-variant:normal;font-weight:500;font-stretch:normal;line-height:87.00000048%;font-family:'Futura LT Condensed';-inkscape-font-specification:'Futura LT Condensed, Medium';fill:#225500"
         id="path4792"
         inkscape:connector-curvature="0" />
      <path
         d="m 2839.8503,599.06425 0,18.75609 -24.3614,0 0,143.79664 -21.5587,0 0,-143.79664 -25.4393,0 0,-18.75609 71.3594,0 z"
         style="font-style:normal;font-variant:normal;font-weight:500;font-stretch:normal;line-height:87.00000048%;font-family:'Futura LT Condensed';-inkscape-font-specification:'Futura LT Condensed, Medium';fill:#225500"
         id="path4794"
         inkscape:connector-curvature="0" />
      <path
         d="m 2852.2862,763.34168 q -5.3897,0 -9.2703,-3.66498 -3.665,-3.88057 -3.665,-9.48584 0,-5.17409 3.665,-8.83907 3.8806,-3.88057 9.2703,-3.88057 5.3896,0 9.0546,3.88057 3.8806,3.66498 3.8806,8.83907 0,5.60527 -3.8806,9.48584 -3.665,3.66498 -9.0546,3.66498 z"
         style="font-style:normal;font-variant:normal;font-weight:500;font-stretch:normal;line-height:87.00000048%;font-family:'Futura LT Condensed';-inkscape-font-specification:'Futura LT Condensed, Medium';fill:#225500"
         id="path4796"
         inkscape:connector-curvature="0" />
      <path
         d="m 2943.4485,624.07237 q -4.3118,-3.01822 -8.6235,-4.95851 -4.0962,-1.94028 -9.7014,-1.94028 -9.0547,0 -14.2288,6.25202 -4.9585,6.25203 -4.9585,14.65993 0,5.38968 1.2935,9.48584 1.5091,3.88057 4.7429,8.19231 l 16.3847,17.89374 q 5.3897,5.60526 9.7014,10.77935 4.3117,4.95851 7.33,10.56378 3.0182,5.38968 4.5273,11.85729 1.5091,6.25203 1.5091,14.44434 0,8.62349 -2.587,16.38463 -2.5871,7.54555 -7.5456,13.3664 -4.9585,5.82085 -12.0729,9.27025 -6.8988,3.44939 -15.9534,3.44939 -6.2521,0 -12.5041,-1.94028 -6.252,-1.7247 -11.2105,-5.82085 l 0,-21.77431 q 4.9585,3.66498 9.917,6.03644 5.1741,2.37146 11.4261,2.37146 9.917,0 14.4444,-6.6832 4.5273,-6.89879 4.5273,-15.95345 0,-8.19231 -3.4494,-14.22876 -3.2338,-6.25202 -8.4079,-11.6417 -4.9585,-5.60527 -10.995,-10.99495 -5.8208,-5.38968 -10.9949,-11.64171 -4.9585,-6.46761 -8.4079,-14.22875 -3.2338,-7.97672 -3.2338,-18.75608 0,-8.62349 2.1559,-16.16904 2.3714,-7.54555 6.8988,-13.15082 4.5273,-5.60527 11.4261,-8.83907 6.8988,-3.4494 15.9534,-3.4494 6.252,0 11.8573,1.29352 5.8209,1.07794 10.995,4.09616 l -0.2156,21.77431 z"
         style="font-style:normal;font-variant:normal;font-weight:500;font-stretch:normal;line-height:87.00000048%;font-family:'Futura LT Condensed';-inkscape-font-specification:'Futura LT Condensed, Medium';fill:#225500"
         id="path4798"
         inkscape:connector-curvature="0" />
      <path
         d="m 2997.6241,599.06425 0,78.04256 30.3978,-78.04256 22.2055,0 -31.9069,78.68932 34.4939,83.86341 -24.7925,0 -30.3978,-82.3543 0,82.3543 -21.9899,0 0,-162.55273 21.9899,0 z"
         style="font-style:normal;font-variant:normal;font-weight:500;font-stretch:normal;line-height:87.00000048%;font-family:'Futura LT Condensed';-inkscape-font-specification:'Futura LT Condensed, Medium';fill:#225500"
         id="path4800"
         inkscape:connector-curvature="0" />
    </g>
    <flowRoot
       xml:space="preserve"
       id="flowRoot4444-4"
       style="font-style:normal;font-variant:normal;font-weight:normal;font-stretch:normal;font-size:215.58717346px;line-height:125%;font-family:'Helvetica LT';-inkscape-font-specification:'Helvetica LT';letter-spacing:5.98853254px;word-spacing:0px;fill:#000000;fill-opacity:1;stroke:none;stroke-width:1px;stroke-linecap:butt;stroke-linejoin:miter;stroke-opacity:1"
       transform="translate(1868.8076,-794.23421)"><flowRegion
         id="flowRegion4446-8"><rect
           id="rect4448-8"
           width="2770.5938"
           height="1113.077"
           x="-7.763514"
           y="12.401483" /></flowRegion><flowPara
         id="flowPara4450-5"
         style="font-style:normal;font-variant:normal;font-weight:normal;font-stretch:normal;line-height:79.00000215%;font-family:'ITCFranklinGothic LT BookXCp';-inkscape-font-specification:'ITCFranklinGothic LT BookXCp'">RADAR.</flowPara><flowPara
         id="flowPara4452-9"
         style="font-style:normal;font-variant:normal;font-weight:normal;font-stretch:normal;line-height:79.00000215%;font-family:'ITCFranklinGothic LT BookXCp';-inkscape-font-specification:'ITCFranklinGothic LT BookXCp'">CYKLONAUT.SK</flowPara></flowRoot>    <flowRoot
       xml:space="preserve"
       id="flowRoot4624"
       style="font-style:normal;font-variant:normal;font-weight:normal;font-stretch:normal;font-size:72px;line-height:125%;font-family:'Helvetica LT';-inkscape-font-specification:'Helvetica LT';letter-spacing:2px;word-spacing:0px;fill:#000000;fill-opacity:1;stroke:none;stroke-width:1px;stroke-linecap:butt;stroke-linejoin:miter;stroke-opacity:1"><flowRegion
         id="flowRegion4626"><rect
           id="rect4628"
           width="362.85715"
           height="465.71429"
           x="1597.1428"
           y="-539.06635" /></flowRegion><flowPara
         id="flowPara4630" /></flowRoot>    <flowRoot
       xml:space="preserve"
       id="flowRoot4444-9"
       style="font-style:normal;font-variant:normal;font-weight:normal;font-stretch:normal;font-size:181.79704285px;line-height:125%;font-family:'Helvetica LT';-inkscape-font-specification:'Helvetica LT';letter-spacing:5.0499177px;word-spacing:0px;fill:#000000;fill-opacity:1;stroke:none;stroke-width:1px;stroke-linecap:butt;stroke-linejoin:miter;stroke-opacity:1"
       transform="translate(2761.851,-1223.1291)"><flowRegion
         id="flowRegion4446-1"><rect
           id="rect4448-9"
           width="2336.3438"
           height="938.61853"
           x="-9.0901613"
           y="14.948318" /></flowRegion><flowPara
         id="flowPara4450-9"
         style="font-style:normal;font-variant:normal;font-weight:bold;font-stretch:normal;line-height:79.00000215%;font-family:'TradeGothic LT Bold';-inkscape-font-specification:'TradeGothic LT Bold,  Bold'">RADAR.</flowPara><flowPara
         id="flowPara4452-2"
         style="font-style:normal;font-variant:normal;font-weight:bold;font-stretch:normal;line-height:79.00000215%;font-family:'TradeGothic LT Bold';-inkscape-font-specification:'TradeGothic LT Bold,  Bold'">CYKLONAUT.SK</flowPara></flowRoot>  </g>
</svg>
